<svg width="69" height="91" viewBox="0 0 69 91" fill="none" xmlns="http://www.w3.org/2000/svg">
<path d="M64.128 21.248C61.312 20.9067 56.3627 20.4373 49.28 19.84C45.3547 19.6693 42.1973 19.584 39.808 19.584C36.736 19.584 33.8347 19.6693 31.104 19.84V3.8147e-06H34.304C41.3013 3.8147e-06 48.5547 0.469336 56.064 1.408C58.4533 1.74933 61.1413 2.21867 64.128 2.81601V21.248ZM43.008 63.104C43.008 61.312 42.88 60.032 42.624 59.264C42.368 58.4107 41.9413 57.856 41.344 57.6C40.7467 57.2587 39.7227 57.0027 38.272 56.832L22.528 54.912C13.2267 53.888 6.95467 50.8587 3.712 45.824C2.26133 43.6907 1.28 41.088 0.768 38.016C0.256 34.944 0 31.1893 0 26.752C0 17.28 2.432 10.4533 7.296 6.27201C11.2213 2.85867 17.3653 0.853339 25.728 0.256008V25.984C25.728 27.0933 25.7707 28.032 25.856 28.8C25.9413 29.568 26.112 30.1653 26.368 30.592C26.624 31.104 27.0507 31.488 27.648 31.744C28.2453 31.9147 29.1413 32.0427 30.336 32.128L48 34.304C51.6693 34.816 54.656 35.456 56.96 36.224C59.264 36.992 61.2267 38.1867 62.848 39.808C66.688 43.8187 68.608 50.944 68.608 61.184C68.608 72.0213 66.2187 79.616 61.44 83.968C59.3067 85.9307 56.704 87.3813 53.632 88.32C50.6453 89.1733 47.104 89.728 43.008 89.984V63.104ZM36.224 90.112C27.6907 90.112 19.7547 89.728 12.416 88.96C8.064 88.5333 4.77867 88.1067 2.56 87.68V68.992C7.59467 69.4187 13.3547 69.8453 19.84 70.272C23.936 70.4427 26.8373 70.528 28.544 70.528C33.152 70.528 36.1813 70.4 37.632 70.144V90.112H36.224Z" fill="black"/>
</svg>
